# xmcd
#
# Track frame offsets:
#	150
#	17422
#	34570
#	50944
#	67028
#	81738
#	98727
#	121576
#	136570
#	153181
#	172665
#	189543
#	206256
#	223053
#	240519
#	254634
#	268617
#	281043
#	298276
#	313179
#
# Disc length: 4523 seconds
#
# Revision: 1
# Processed by: cddbd v1.5.2PL0 Copyright (c) Steve Scherf et al.
# Submitted via: EasyCDDAExtractor 2010.6.0.0
#
DISCID=2311a914
DTITLE=Various Artist - Disco Nouveau
DYEAR=2002
DGENRE=Disco
TTITLE0=Alcazar - Crying At The Discoteque
TTITLE1=Kylie Minogue - Can't Get You Out Of My Head
TTITLE2=Gare Du Nord - Boogie All Night Long
TTITLE3=Moloko - Sing It Back
TTITLE4=Soulvation - I Just Can't Stop
TTITLE5=Phats and Small - Turn Around
TTITLE6=Modjo - Lady (Hear Me Tonight)
TTITLE7=Powerhouse feat. Duane Harden -  What You Need
TTITLE8=Spiller - Groovejet
TTITLE9=Grant Nelson feat. Jean Mcclain - Step 2 Me
TTITLE10=Psychedelic Waltons - Wonderland
TTITLE11=Earth, Wind and Fire  - Boogie Wonderland (Stretch and Vern Remix)
TTITLE12=Mousse T - Horny '98
TTITLE13=Bob Marley Vs. Funkstar Deluxe - Sun Is Shining
TTITLE14=The Ones - Flawless
TTITLE15=Wisdome - Off The Wall
TTITLE16=Cleptomaniacs - All I Do
TTITLE17=Triple X - Feel The Same
TTITLE18=Tamperer - Feel It
TTITLE19=Barry White - Let The Music Play (Remix)
EXTD=
EXTT0=
EXTT1=
EXTT2=
EXTT3=
EXTT4=
EXTT5=
EXTT6=
EXTT7=
EXTT8=
EXTT9=
EXTT10=
EXTT11=
EXTT12=
EXTT13=
EXTT14=
EXTT15=
EXTT16=
EXTT17=
EXTT18=
EXTT19=
PLAYORDER=
